<svg width="1800" height="887" viewBox="0 0 1800 887" fill="none" xmlns="http://www.w3.org/2000/svg">
<rect width="1800" height="887" fill="white"/>
<path d="M758.286 394.252H714.154C706.961 394.252 700.334 398.105 696.737 404.322L681.273 431.14C684.305 432.887 686.822 435.404 688.62 438.487L719.395 491.764L767.02 409.305C770.873 402.626 766.044 394.252 758.286 394.252Z" fill="#00A698"/>
<path d="M671.197 428.467H627.065C619.307 428.467 614.478 436.841 618.383 443.571L646.228 491.865L681.267 431.19C678.236 429.391 674.794 428.467 671.197 428.467Z" fill="#EA552B"/>
<path d="M681.261 431.138L646.222 491.814H719.382L688.607 438.485C686.809 435.403 684.292 432.885 681.261 431.138Z" fill="#4723D1"/>
<path d="M668.161 418.09C674.744 418.09 680.08 412.754 680.08 406.171C680.08 399.588 674.744 394.252 668.161 394.252C661.578 394.252 656.241 399.588 656.241 406.171C656.241 412.754 661.578 418.09 668.161 418.09Z" fill="#EA552B"/>
<path d="M895.417 410.644H914.323V412.545L889.663 478.101H874.25L857.963 433.455L841.575 478.101H826.213L801.398 412.545V410.644H820.459L834.998 451.694L850.206 410.644H865.619L880.826 451.694L895.417 410.644Z" fill="black"/>
<path d="M924.649 478.092V410.635H943.813V478.092H924.649ZM934.205 403.905C940.679 403.905 945.868 398.664 945.868 392.242C945.868 385.82 940.627 380.58 934.205 380.58C927.783 380.58 922.543 385.82 922.543 392.242C922.543 398.664 927.732 403.905 934.205 403.905Z" fill="black"/>
<path d="M986.71 479.288C981.418 479.288 976.28 478.671 971.4 477.387C966.519 476.154 962.666 474.459 959.84 472.352V456.323C963.231 458.737 967.29 460.741 972.016 462.231C976.691 463.773 981.264 464.491 985.631 464.491C990.82 464.491 994.776 463.927 997.499 462.796C1000.22 461.666 1001.56 460.022 1001.56 457.864C1001.56 457.093 1001.4 456.426 1001.1 455.809C1000.79 455.244 1000.27 454.73 999.605 454.319C998.938 453.908 998.218 453.549 997.499 453.292C996.779 452.983 995.803 452.778 994.622 452.572C993.44 452.367 992.361 452.213 991.436 452.11C990.512 452.007 989.33 451.853 987.84 451.699C985.477 451.391 983.678 451.185 982.394 450.98C981.11 450.775 979.26 450.466 976.948 449.952C974.585 449.49 972.736 448.925 971.349 448.359C969.961 447.795 968.42 446.972 966.622 445.893C964.875 444.815 963.488 443.633 962.512 442.297C961.536 440.961 960.713 439.318 960.046 437.365C959.377 435.361 959.018 433.152 959.018 430.738C959.018 424.315 961.844 419.178 967.546 415.222C973.249 411.266 980.699 409.314 989.998 409.314C994.622 409.314 999.348 409.879 1004.18 411.009C1009.01 412.139 1013.22 413.681 1016.76 415.633V431.662C1013.17 429.35 1009.01 427.501 1004.23 426.062C999.502 424.624 995.135 423.956 991.128 423.956C987.378 423.956 984.398 424.521 982.189 425.6C979.928 426.679 978.798 428.117 978.798 429.915C978.798 430.686 978.952 431.354 979.209 431.971C979.517 432.536 980.031 433.101 980.75 433.512C981.521 433.974 982.189 434.334 982.805 434.591C983.422 434.848 984.398 435.105 985.734 435.361C987.069 435.618 988.097 435.824 988.919 435.927C989.689 436.029 990.922 436.235 992.618 436.389C994.827 436.646 996.677 436.851 998.064 437.108C999.502 437.314 1001.3 437.674 1003.51 438.187C1005.72 438.649 1007.57 439.215 1009.06 439.831C1010.5 440.448 1012.09 441.269 1013.79 442.349C1015.48 443.376 1016.82 444.609 1017.84 445.893C1018.87 447.229 1019.69 448.822 1020.36 450.775C1021.03 452.726 1021.39 454.884 1021.39 457.196C1021.39 463.773 1018.2 469.115 1011.88 473.123C1005.41 477.284 997.088 479.288 986.71 479.288Z" fill="black"/>
<path d="M1099.95 442.84V449.364H1051.04C1052.27 453.577 1054.95 456.865 1058.95 459.28C1062.96 461.695 1067.94 462.877 1073.85 462.877C1078.07 462.877 1082.28 462.157 1086.54 460.667C1090.76 459.229 1094.25 457.277 1097.02 454.913V471.97C1093.63 474.179 1089.32 475.978 1084.08 477.262C1078.84 478.597 1073.65 479.214 1068.51 479.214C1057.31 479.214 1048.27 476.029 1041.43 469.607C1034.6 463.185 1031.21 454.759 1031.21 444.279C1031.21 433.797 1034.6 425.321 1041.43 418.95C1048.27 412.528 1057.26 409.343 1068.41 409.343C1077.91 409.343 1085.52 412.374 1091.27 418.487C1097.07 424.653 1099.95 432.719 1099.95 442.84ZM1067.48 423.419C1063.53 423.419 1060.19 424.55 1057.36 426.862C1054.53 429.174 1052.58 432.308 1051.45 436.315H1081.15C1080.84 432.41 1079.45 429.225 1076.99 426.913C1074.52 424.601 1071.34 423.419 1067.48 423.419Z" fill="black"/>
<path d="M1160.98 410.644H1180.92V412.545L1133.65 505.536H1114.69V503.635L1132.98 468.288L1104.47 412.545V410.644H1124.4L1143.05 449.33L1160.98 410.644Z" fill="black"/>
</svg>
