<svg width="1800" height="887" viewBox="0 0 1800 887" fill="none" xmlns="http://www.w3.org/2000/svg">
<rect width="1800" height="887" fill="white"/>
<g clip-path="url(#clip0_2207_850)">
<path d="M757.822 341.252H713.69C706.497 341.252 699.869 345.105 696.273 351.322L680.809 378.14C683.84 379.887 686.358 382.404 688.156 385.487L718.93 438.764L766.556 356.305C770.409 349.626 765.58 341.252 757.822 341.252Z" fill="#00A698"/>
<path d="M670.733 375.467H626.601C618.843 375.467 614.014 383.841 617.918 390.571L645.764 438.865L680.803 378.19C677.772 376.391 674.329 375.467 670.733 375.467Z" fill="#EA552B"/>
<path d="M680.797 378.138L645.758 438.814H718.917L688.143 385.485C686.345 382.403 683.828 379.885 680.797 378.138Z" fill="#4723D1"/>
<path d="M667.696 365.09C674.279 365.09 679.616 359.754 679.616 353.171C679.616 346.588 674.279 341.252 667.696 341.252C661.113 341.252 655.777 346.588 655.777 353.171C655.777 359.754 661.113 365.09 667.696 365.09Z" fill="#EA552B"/>
<path d="M894.953 357.644H913.859V359.545L889.199 425.101H873.785L857.499 380.455L841.11 425.101H825.749L800.934 359.545V357.644H819.995L834.534 398.694L849.741 357.644H865.154L880.362 398.694L894.953 357.644Z" fill="black"/>
<path d="M924.185 425.092V357.635H943.348V425.092H924.185ZM933.741 350.905C940.214 350.905 945.403 345.664 945.403 339.242C945.403 332.82 940.163 327.58 933.741 327.58C927.319 327.58 922.078 332.82 922.078 339.242C922.078 345.664 927.267 350.905 933.741 350.905Z" fill="black"/>
<path d="M986.246 426.288C980.953 426.288 975.816 425.671 970.935 424.387C966.055 423.154 962.201 421.459 959.375 419.352V403.323C962.766 405.737 966.825 407.741 971.552 409.231C976.227 410.773 980.799 411.491 985.166 411.491C990.356 411.491 994.311 410.927 997.034 409.796C999.757 408.666 1001.09 407.022 1001.09 404.864C1001.09 404.093 1000.94 403.426 1000.63 402.809C1000.32 402.244 999.808 401.73 999.141 401.319C998.473 400.908 997.754 400.549 997.034 400.292C996.315 399.983 995.339 399.778 994.157 399.572C992.976 399.367 991.897 399.213 990.972 399.11C990.047 399.007 988.866 398.853 987.376 398.699C985.012 398.391 983.214 398.185 981.93 397.98C980.645 397.775 978.796 397.466 976.484 396.952C974.12 396.49 972.271 395.925 970.884 395.359C969.496 394.795 967.955 393.972 966.157 392.893C964.411 391.815 963.024 390.633 962.047 389.297C961.071 387.961 960.249 386.318 959.581 384.365C958.913 382.361 958.554 380.152 958.554 377.738C958.554 371.315 961.379 366.178 967.082 362.222C972.785 358.266 980.234 356.314 989.533 356.314C994.157 356.314 998.884 356.879 1003.71 358.009C1008.54 359.139 1012.76 360.681 1016.3 362.633V378.662C1012.7 376.35 1008.54 374.501 1003.76 373.062C999.038 371.624 994.671 370.956 990.664 370.956C986.913 370.956 983.933 371.521 981.724 372.6C979.464 373.679 978.333 375.117 978.333 376.915C978.333 377.686 978.487 378.354 978.744 378.971C979.053 379.536 979.566 380.101 980.286 380.512C981.056 380.974 981.724 381.334 982.341 381.591C982.957 381.848 983.933 382.105 985.269 382.361C986.605 382.618 987.633 382.824 988.454 382.927C989.225 383.029 990.458 383.235 992.154 383.389C994.363 383.646 996.213 383.851 997.6 384.108C999.038 384.314 1000.84 384.674 1003.05 385.187C1005.25 385.649 1007.1 386.215 1008.59 386.831C1010.03 387.448 1011.63 388.269 1013.32 389.349C1015.02 390.376 1016.35 391.609 1017.38 392.893C1018.41 394.229 1019.23 395.822 1019.9 397.775C1020.56 399.726 1020.92 401.884 1020.92 404.196C1020.92 410.773 1017.74 416.115 1011.42 420.123C1004.95 424.284 996.623 426.288 986.246 426.288Z" fill="black"/>
<path d="M1099.49 389.84V396.364H1050.58C1051.81 400.577 1054.48 403.865 1058.49 406.28C1062.5 408.695 1067.48 409.876 1073.39 409.876C1077.6 409.876 1081.81 409.157 1086.08 407.667C1090.29 406.229 1093.78 404.277 1096.56 401.913V418.97C1093.17 421.179 1088.85 422.978 1083.61 424.262C1078.37 425.597 1073.18 426.214 1068.05 426.214C1056.85 426.214 1047.8 423.029 1040.97 416.607C1034.14 410.185 1030.75 401.759 1030.75 391.278C1030.75 380.797 1034.14 372.321 1040.97 365.95C1047.8 359.528 1056.79 356.343 1067.94 356.343C1077.45 356.343 1085.05 359.374 1090.8 365.487C1096.61 371.653 1099.49 379.719 1099.49 389.84ZM1067.02 370.419C1063.06 370.419 1059.72 371.55 1056.9 373.862C1054.07 376.174 1052.12 379.307 1050.99 383.315H1080.68C1080.38 379.41 1078.99 376.225 1076.52 373.913C1074.06 371.601 1070.87 370.419 1067.02 370.419Z" fill="black"/>
<path d="M1160.52 357.644H1180.45V359.545L1133.19 452.536H1114.23V450.635L1132.52 415.288L1104 359.545V357.644H1123.94L1142.59 396.33L1160.52 357.644Z" fill="black"/>
</g>
<path d="M482.268 565.549C480.252 565.549 478.32 565.285 476.472 564.757C474.624 564.205 473.136 563.497 472.008 562.633L473.988 558.241C475.068 559.009 476.34 559.645 477.804 560.149C479.292 560.629 480.792 560.869 482.304 560.869C483.456 560.869 484.38 560.761 485.076 560.545C485.796 560.305 486.324 559.981 486.66 559.573C486.996 559.165 487.164 558.697 487.164 558.169C487.164 557.497 486.9 556.969 486.372 556.585C485.844 556.177 485.148 555.853 484.284 555.613C483.42 555.349 482.46 555.109 481.404 554.893C480.372 554.653 479.328 554.365 478.272 554.029C477.24 553.693 476.292 553.261 475.428 552.733C474.564 552.205 473.856 551.509 473.304 550.645C472.776 549.781 472.512 548.677 472.512 547.333C472.512 545.893 472.896 544.585 473.664 543.409C474.456 542.209 475.632 541.261 477.192 540.565C478.776 539.845 480.756 539.485 483.132 539.485C484.716 539.485 486.276 539.677 487.812 540.061C489.348 540.421 490.704 540.973 491.88 541.717L490.08 546.145C488.904 545.473 487.728 544.981 486.552 544.669C485.376 544.333 484.224 544.165 483.096 544.165C481.968 544.165 481.044 544.297 480.324 544.561C479.604 544.825 479.088 545.173 478.776 545.605C478.464 546.013 478.308 546.493 478.308 547.045C478.308 547.693 478.572 548.221 479.1 548.629C479.628 549.013 480.324 549.325 481.188 549.565C482.052 549.805 483 550.045 484.032 550.285C485.088 550.525 486.132 550.801 487.164 551.113C488.22 551.425 489.18 551.845 490.044 552.373C490.908 552.901 491.604 553.597 492.132 554.461C492.684 555.325 492.96 556.417 492.96 557.737C492.96 559.153 492.564 560.449 491.772 561.625C490.98 562.801 489.792 563.749 488.208 564.469C486.648 565.189 484.668 565.549 482.268 565.549ZM505.765 565.405C503.701 565.405 501.865 564.973 500.257 564.109C498.673 563.245 497.413 562.069 496.477 560.581C495.565 559.069 495.109 557.353 495.109 555.433C495.109 553.489 495.565 551.773 496.477 550.285C497.413 548.773 498.673 547.597 500.257 546.757C501.865 545.893 503.701 545.461 505.765 545.461C507.805 545.461 509.629 545.893 511.237 546.757C512.845 547.597 514.105 548.761 515.017 550.249C515.929 551.737 516.385 553.465 516.385 555.433C516.385 557.353 515.929 559.069 515.017 560.581C514.105 562.069 512.845 563.245 511.237 564.109C509.629 564.973 507.805 565.405 505.765 565.405ZM505.765 560.797C506.701 560.797 507.541 560.581 508.285 560.149C509.029 559.717 509.617 559.105 510.049 558.313C510.481 557.497 510.697 556.537 510.697 555.433C510.697 554.305 510.481 553.345 510.049 552.553C509.617 551.761 509.029 551.149 508.285 550.717C507.541 550.285 506.701 550.069 505.765 550.069C504.829 550.069 503.989 550.285 503.245 550.717C502.501 551.149 501.901 551.761 501.445 552.553C501.013 553.345 500.797 554.305 500.797 555.433C500.797 556.537 501.013 557.497 501.445 558.313C501.901 559.105 502.501 559.717 503.245 560.149C503.989 560.581 504.829 560.797 505.765 560.797ZM520.139 565.117V545.749H525.503V551.221L524.747 549.637C525.323 548.269 526.247 547.237 527.519 546.541C528.791 545.821 530.339 545.461 532.163 545.461V550.645C531.923 550.621 531.707 550.609 531.515 550.609C531.323 550.585 531.119 550.573 530.903 550.573C529.367 550.573 528.119 551.017 527.159 551.905C526.223 552.769 525.755 554.125 525.755 555.973V565.117H520.139ZM535.537 565.117V545.749H540.901V551.221L540.145 549.637C540.721 548.269 541.645 547.237 542.917 546.541C544.189 545.821 545.737 545.461 547.561 545.461V550.645C547.321 550.621 547.105 550.609 546.913 550.609C546.721 550.585 546.517 550.573 546.301 550.573C544.765 550.573 543.517 551.017 542.557 551.905C541.621 552.769 541.153 554.125 541.153 555.973V565.117H535.537ZM554.017 572.389C553.009 572.389 552.013 572.233 551.029 571.921C550.045 571.609 549.241 571.177 548.617 570.625L550.669 566.629C551.101 567.013 551.593 567.313 552.145 567.529C552.721 567.745 553.285 567.853 553.837 567.853C554.629 567.853 555.253 567.661 555.709 567.277C556.189 566.917 556.621 566.305 557.005 565.441L558.013 563.065L558.445 562.453L565.393 545.749H570.793L562.045 566.305C561.421 567.865 560.701 569.089 559.885 569.977C559.093 570.865 558.205 571.489 557.221 571.849C556.261 572.209 555.193 572.389 554.017 572.389ZM557.329 565.873L548.689 545.749H554.485L561.181 561.949L557.329 565.873ZM570.952 570.661L573.328 562.021L574.12 565.261C573.088 565.261 572.236 564.961 571.564 564.361C570.916 563.761 570.592 562.933 570.592 561.877C570.592 560.821 570.928 559.981 571.6 559.357C572.272 558.733 573.1 558.421 574.084 558.421C575.092 558.421 575.92 558.745 576.568 559.393C577.216 560.017 577.54 560.845 577.54 561.877C577.54 562.189 577.516 562.501 577.468 562.813C577.42 563.101 577.324 563.461 577.18 563.893C577.06 564.301 576.856 564.829 576.568 565.477L574.516 570.661H570.952ZM599.461 565.405C597.181 565.405 595.405 564.829 594.133 563.677C592.861 562.501 592.225 560.761 592.225 558.457V541.465H597.841V558.385C597.841 559.201 598.057 559.837 598.489 560.293C598.921 560.725 599.509 560.941 600.253 560.941C601.141 560.941 601.897 560.701 602.521 560.221L604.033 564.181C603.457 564.589 602.761 564.901 601.945 565.117C601.153 565.309 600.325 565.405 599.461 565.405ZM589.237 550.501V546.181H602.665V550.501H589.237ZM618.958 545.461C620.494 545.461 621.862 545.773 623.062 546.397C624.286 546.997 625.246 547.933 625.942 549.205C626.638 550.453 626.986 552.061 626.986 554.029V565.117H621.37V554.893C621.37 553.333 621.022 552.181 620.326 551.437C619.654 550.693 618.694 550.321 617.446 550.321C616.558 550.321 615.754 550.513 615.034 550.897C614.338 551.257 613.786 551.821 613.378 552.589C612.994 553.357 612.802 554.341 612.802 555.541V565.117H607.186V538.405H612.802V551.113L611.542 549.493C612.238 548.197 613.234 547.201 614.53 546.505C615.826 545.809 617.302 545.461 618.958 545.461ZM641.829 565.405C639.621 565.405 637.677 564.973 635.997 564.109C634.341 563.245 633.057 562.069 632.145 560.581C631.233 559.069 630.777 557.353 630.777 555.433C630.777 553.489 631.221 551.773 632.109 550.285C633.021 548.773 634.257 547.597 635.817 546.757C637.377 545.893 639.141 545.461 641.109 545.461C643.005 545.461 644.709 545.869 646.221 546.685C647.757 547.477 648.969 548.629 649.857 550.141C650.745 551.629 651.189 553.417 651.189 555.505C651.189 555.721 651.177 555.973 651.153 556.261C651.129 556.525 651.105 556.777 651.081 557.017H635.349V553.741H648.129L645.969 554.713C645.969 553.705 645.765 552.829 645.357 552.085C644.949 551.341 644.385 550.765 643.665 550.357C642.945 549.925 642.105 549.709 641.145 549.709C640.185 549.709 639.333 549.925 638.589 550.357C637.869 550.765 637.305 551.353 636.897 552.121C636.489 552.865 636.285 553.753 636.285 554.785V555.649C636.285 556.705 636.513 557.641 636.969 558.457C637.449 559.249 638.109 559.861 638.949 560.293C639.813 560.701 640.821 560.905 641.973 560.905C643.005 560.905 643.905 560.749 644.673 560.437C645.465 560.125 646.185 559.657 646.833 559.033L649.821 562.273C648.933 563.281 647.817 564.061 646.473 564.613C645.129 565.141 643.581 565.405 641.829 565.405ZM670.379 565.117L662.243 545.749H668.039L674.807 562.417H671.927L678.947 545.749H684.347L676.175 565.117H670.379ZM686.639 565.117V545.749H692.255V565.117H686.639ZM689.447 543.049C688.415 543.049 687.575 542.749 686.927 542.149C686.279 541.549 685.955 540.805 685.955 539.917C685.955 539.029 686.279 538.285 686.927 537.685C687.575 537.085 688.415 536.785 689.447 536.785C690.479 536.785 691.319 537.073 691.967 537.649C692.615 538.201 692.939 538.921 692.939 539.809C692.939 540.745 692.615 541.525 691.967 542.149C691.343 542.749 690.503 543.049 689.447 543.049ZM705.783 565.405C703.959 565.405 702.315 564.997 700.851 564.181C699.387 563.341 698.223 562.177 697.359 560.689C696.519 559.201 696.099 557.449 696.099 555.433C696.099 553.393 696.519 551.629 697.359 550.141C698.223 548.653 699.387 547.501 700.851 546.685C702.315 545.869 703.959 545.461 705.783 545.461C707.415 545.461 708.843 545.821 710.067 546.541C711.291 547.261 712.239 548.353 712.911 549.817C713.583 551.281 713.919 553.153 713.919 555.433C713.919 557.689 713.595 559.561 712.947 561.049C712.299 562.513 711.363 563.605 710.139 564.325C708.939 565.045 707.487 565.405 705.783 565.405ZM706.755 560.797C707.667 560.797 708.495 560.581 709.239 560.149C709.983 559.717 710.571 559.105 711.003 558.313C711.459 557.497 711.687 556.537 711.687 555.433C711.687 554.305 711.459 553.345 711.003 552.553C710.571 551.761 709.983 551.149 709.239 550.717C708.495 550.285 707.667 550.069 706.755 550.069C705.819 550.069 704.979 550.285 704.235 550.717C703.491 551.149 702.891 551.761 702.435 552.553C702.003 553.345 701.787 554.305 701.787 555.433C701.787 556.537 702.003 557.497 702.435 558.313C702.891 559.105 703.491 559.717 704.235 560.149C704.979 560.581 705.819 560.797 706.755 560.797ZM711.831 565.117V561.157L711.939 555.397L711.579 549.673V538.405H717.195V565.117H711.831ZM732.005 565.405C729.797 565.405 727.853 564.973 726.173 564.109C724.517 563.245 723.233 562.069 722.321 560.581C721.409 559.069 720.953 557.353 720.953 555.433C720.953 553.489 721.397 551.773 722.285 550.285C723.197 548.773 724.433 547.597 725.993 546.757C727.553 545.893 729.317 545.461 731.285 545.461C733.181 545.461 734.885 545.869 736.397 546.685C737.933 547.477 739.145 548.629 740.033 550.141C740.921 551.629 741.365 553.417 741.365 555.505C741.365 555.721 741.353 555.973 741.329 556.261C741.305 556.525 741.281 556.777 741.257 557.017H725.525V553.741H738.305L736.145 554.713C736.145 553.705 735.941 552.829 735.533 552.085C735.125 551.341 734.561 550.765 733.841 550.357C733.121 549.925 732.281 549.709 731.321 549.709C730.361 549.709 729.509 549.925 728.765 550.357C728.045 550.765 727.481 551.353 727.073 552.121C726.665 552.865 726.461 553.753 726.461 554.785V555.649C726.461 556.705 726.689 557.641 727.145 558.457C727.625 559.249 728.285 559.861 729.125 560.293C729.989 560.701 730.997 560.905 732.149 560.905C733.181 560.905 734.081 560.749 734.849 560.437C735.641 560.125 736.361 559.657 737.009 559.033L739.997 562.273C739.109 563.281 737.993 564.061 736.649 564.613C735.305 565.141 733.757 565.405 732.005 565.405ZM754.32 565.405C752.256 565.405 750.42 564.973 748.812 564.109C747.228 563.245 745.968 562.069 745.032 560.581C744.12 559.069 743.664 557.353 743.664 555.433C743.664 553.489 744.12 551.773 745.032 550.285C745.968 548.773 747.228 547.597 748.812 546.757C750.42 545.893 752.256 545.461 754.32 545.461C756.36 545.461 758.184 545.893 759.792 546.757C761.4 547.597 762.66 548.761 763.572 550.249C764.484 551.737 764.94 553.465 764.94 555.433C764.94 557.353 764.484 559.069 763.572 560.581C762.66 562.069 761.4 563.245 759.792 564.109C758.184 564.973 756.36 565.405 754.32 565.405ZM754.32 560.797C755.256 560.797 756.096 560.581 756.84 560.149C757.584 559.717 758.172 559.105 758.604 558.313C759.036 557.497 759.252 556.537 759.252 555.433C759.252 554.305 759.036 553.345 758.604 552.553C758.172 551.761 757.584 551.149 756.84 550.717C756.096 550.285 755.256 550.069 754.32 550.069C753.384 550.069 752.544 550.285 751.8 550.717C751.056 551.149 750.456 551.761 750 552.553C749.568 553.345 749.352 554.305 749.352 555.433C749.352 556.537 749.568 557.497 750 558.313C750.456 559.105 751.056 559.717 751.8 560.149C752.544 560.581 753.384 560.797 754.32 560.797ZM778.889 565.117V545.749H784.505V565.117H778.889ZM781.697 543.049C780.665 543.049 779.825 542.749 779.177 542.149C778.529 541.549 778.205 540.805 778.205 539.917C778.205 539.029 778.529 538.285 779.177 537.685C779.825 537.085 780.665 536.785 781.697 536.785C782.729 536.785 783.569 537.073 784.217 537.649C784.865 538.201 785.189 538.921 785.189 539.809C785.189 540.745 784.865 541.525 784.217 542.149C783.593 542.749 782.753 543.049 781.697 543.049ZM796.233 565.405C794.577 565.405 792.981 565.213 791.445 564.829C789.933 564.421 788.733 563.917 787.845 563.317L789.717 559.285C790.605 559.837 791.649 560.293 792.849 560.653C794.073 560.989 795.273 561.157 796.449 561.157C797.745 561.157 798.657 561.001 799.185 560.689C799.737 560.377 800.013 559.945 800.013 559.393C800.013 558.937 799.797 558.601 799.365 558.385C798.957 558.145 798.405 557.965 797.709 557.845C797.013 557.725 796.245 557.605 795.405 557.485C794.589 557.365 793.761 557.209 792.921 557.017C792.081 556.801 791.313 556.489 790.617 556.081C789.921 555.673 789.357 555.121 788.925 554.425C788.517 553.729 788.313 552.829 788.313 551.725C788.313 550.501 788.661 549.421 789.357 548.485C790.077 547.549 791.109 546.817 792.453 546.289C793.797 545.737 795.405 545.461 797.277 545.461C798.597 545.461 799.941 545.605 801.309 545.893C802.677 546.181 803.817 546.601 804.729 547.153L802.857 551.149C801.921 550.597 800.973 550.225 800.013 550.033C799.077 549.817 798.165 549.709 797.277 549.709C796.029 549.709 795.117 549.877 794.541 550.213C793.965 550.549 793.677 550.981 793.677 551.509C793.677 551.989 793.881 552.349 794.289 552.589C794.721 552.829 795.285 553.021 795.981 553.165C796.677 553.309 797.433 553.441 798.249 553.561C799.089 553.657 799.929 553.813 800.769 554.029C801.609 554.245 802.365 554.557 803.037 554.965C803.733 555.349 804.297 555.889 804.729 556.585C805.161 557.257 805.377 558.145 805.377 559.249C805.377 560.449 805.017 561.517 804.297 562.453C803.577 563.365 802.533 564.085 801.165 564.613C799.821 565.141 798.177 565.405 796.233 565.405ZM830.809 545.461C832.345 545.461 833.713 545.773 834.913 546.397C836.137 546.997 837.097 547.933 837.793 549.205C838.489 550.453 838.837 552.061 838.837 554.029V565.117H833.221V554.893C833.221 553.333 832.873 552.181 832.177 551.437C831.505 550.693 830.545 550.321 829.297 550.321C828.409 550.321 827.605 550.513 826.885 550.897C826.189 551.257 825.637 551.821 825.229 552.589C824.845 553.357 824.653 554.341 824.653 555.541V565.117H819.037V545.749H824.401V551.113L823.393 549.493C824.089 548.197 825.085 547.201 826.381 546.505C827.677 545.809 829.153 545.461 830.809 545.461ZM853.285 565.405C851.221 565.405 849.385 564.973 847.777 564.109C846.193 563.245 844.933 562.069 843.997 560.581C843.085 559.069 842.629 557.353 842.629 555.433C842.629 553.489 843.085 551.773 843.997 550.285C844.933 548.773 846.193 547.597 847.777 546.757C849.385 545.893 851.221 545.461 853.285 545.461C855.325 545.461 857.149 545.893 858.757 546.757C860.365 547.597 861.625 548.761 862.537 550.249C863.449 551.737 863.905 553.465 863.905 555.433C863.905 557.353 863.449 559.069 862.537 560.581C861.625 562.069 860.365 563.245 858.757 564.109C857.149 564.973 855.325 565.405 853.285 565.405ZM853.285 560.797C854.221 560.797 855.061 560.581 855.805 560.149C856.549 559.717 857.137 559.105 857.569 558.313C858.001 557.497 858.217 556.537 858.217 555.433C858.217 554.305 858.001 553.345 857.569 552.553C857.137 551.761 856.549 551.149 855.805 550.717C855.061 550.285 854.221 550.069 853.285 550.069C852.349 550.069 851.509 550.285 850.765 550.717C850.021 551.149 849.421 551.761 848.965 552.553C848.533 553.345 848.317 554.305 848.317 555.433C848.317 556.537 848.533 557.497 848.965 558.313C849.421 559.105 850.021 559.717 850.765 560.149C851.509 560.581 852.349 560.797 853.285 560.797ZM875.578 565.405C873.298 565.405 871.522 564.829 870.25 563.677C868.978 562.501 868.342 560.761 868.342 558.457V541.465H873.958V558.385C873.958 559.201 874.174 559.837 874.606 560.293C875.038 560.725 875.626 560.941 876.37 560.941C877.258 560.941 878.014 560.701 878.638 560.221L880.15 564.181C879.574 564.589 878.878 564.901 878.062 565.117C877.27 565.309 876.442 565.405 875.578 565.405ZM865.354 550.501V546.181H878.782V550.501H865.354ZM905.378 565.117V561.337L905.018 560.509V553.741C905.018 552.541 904.646 551.605 903.902 550.933C903.182 550.261 902.066 549.925 900.554 549.925C899.522 549.925 898.502 550.093 897.494 550.429C896.51 550.741 895.67 551.173 894.974 551.725L892.958 547.801C894.014 547.057 895.286 546.481 896.774 546.073C898.262 545.665 899.774 545.461 901.31 545.461C904.262 545.461 906.554 546.157 908.186 547.549C909.818 548.941 910.634 551.113 910.634 554.065V565.117H905.378ZM899.474 565.405C897.962 565.405 896.666 565.153 895.586 564.649C894.506 564.121 893.678 563.413 893.102 562.525C892.526 561.637 892.238 560.641 892.238 559.537C892.238 558.385 892.514 557.377 893.066 556.513C893.642 555.649 894.542 554.977 895.766 554.497C896.99 553.993 898.586 553.741 900.554 553.741H905.702V557.017H901.166C899.846 557.017 898.934 557.233 898.43 557.665C897.95 558.097 897.71 558.637 897.71 559.285C897.71 560.005 897.986 560.581 898.538 561.013C899.114 561.421 899.894 561.625 900.878 561.625C901.814 561.625 902.654 561.409 903.398 560.977C904.142 560.521 904.682 559.861 905.018 558.997L905.882 561.589C905.474 562.837 904.73 563.785 903.65 564.433C902.57 565.081 901.178 565.405 899.474 565.405ZM920.621 565.117L912.485 545.749H918.281L925.049 562.417H922.169L929.189 545.749H934.589L926.417 565.117H920.621ZM948.128 565.117V561.337L947.768 560.509V553.741C947.768 552.541 947.396 551.605 946.652 550.933C945.932 550.261 944.816 549.925 943.304 549.925C942.272 549.925 941.252 550.093 940.244 550.429C939.26 550.741 938.42 551.173 937.724 551.725L935.708 547.801C936.764 547.057 938.036 546.481 939.524 546.073C941.012 545.665 942.524 545.461 944.06 545.461C947.012 545.461 949.304 546.157 950.936 547.549C952.568 548.941 953.384 551.113 953.384 554.065V565.117H948.128ZM942.224 565.405C940.712 565.405 939.416 565.153 938.336 564.649C937.256 564.121 936.428 563.413 935.852 562.525C935.276 561.637 934.988 560.641 934.988 559.537C934.988 558.385 935.264 557.377 935.816 556.513C936.392 555.649 937.292 554.977 938.516 554.497C939.74 553.993 941.336 553.741 943.304 553.741H948.452V557.017H943.916C942.596 557.017 941.684 557.233 941.18 557.665C940.7 558.097 940.46 558.637 940.46 559.285C940.46 560.005 940.736 560.581 941.288 561.013C941.864 561.421 942.644 561.625 943.628 561.625C944.564 561.625 945.404 561.409 946.148 560.977C946.892 560.521 947.432 559.861 947.768 558.997L948.632 561.589C948.224 562.837 947.48 563.785 946.4 564.433C945.32 565.081 943.928 565.405 942.224 565.405ZM958.467 565.117V545.749H964.083V565.117H958.467ZM961.275 543.049C960.243 543.049 959.403 542.749 958.755 542.149C958.107 541.549 957.783 540.805 957.783 539.917C957.783 539.029 958.107 538.285 958.755 537.685C959.403 537.085 960.243 536.785 961.275 536.785C962.307 536.785 963.147 537.073 963.795 537.649C964.443 538.201 964.767 538.921 964.767 539.809C964.767 540.745 964.443 541.525 963.795 542.149C963.171 542.749 962.331 543.049 961.275 543.049ZM969.295 565.117V538.405H974.911V565.117H969.295ZM992.003 565.117V561.337L991.643 560.509V553.741C991.643 552.541 991.271 551.605 990.527 550.933C989.807 550.261 988.691 549.925 987.179 549.925C986.147 549.925 985.127 550.093 984.119 550.429C983.135 550.741 982.295 551.173 981.599 551.725L979.583 547.801C980.639 547.057 981.911 546.481 983.399 546.073C984.887 545.665 986.399 545.461 987.935 545.461C990.887 545.461 993.179 546.157 994.811 547.549C996.443 548.941 997.259 551.113 997.259 554.065V565.117H992.003ZM986.099 565.405C984.587 565.405 983.291 565.153 982.211 564.649C981.131 564.121 980.303 563.413 979.727 562.525C979.151 561.637 978.863 560.641 978.863 559.537C978.863 558.385 979.139 557.377 979.691 556.513C980.267 555.649 981.167 554.977 982.391 554.497C983.615 553.993 985.211 553.741 987.179 553.741H992.327V557.017H987.791C986.471 557.017 985.559 557.233 985.055 557.665C984.575 558.097 984.335 558.637 984.335 559.285C984.335 560.005 984.611 560.581 985.163 561.013C985.739 561.421 986.519 561.625 987.503 561.625C988.439 561.625 989.279 561.409 990.023 560.977C990.767 560.521 991.307 559.861 991.643 558.997L992.507 561.589C992.099 562.837 991.355 563.785 990.275 564.433C989.195 565.081 987.803 565.405 986.099 565.405ZM1013.79 565.405C1012.09 565.405 1010.62 565.045 1009.4 564.325C1008.17 563.605 1007.24 562.513 1006.59 561.049C1005.94 559.561 1005.62 557.689 1005.62 555.433C1005.62 553.153 1005.95 551.281 1006.63 549.817C1007.32 548.353 1008.28 547.261 1009.51 546.541C1010.73 545.821 1012.16 545.461 1013.79 545.461C1015.61 545.461 1017.25 545.869 1018.69 546.685C1020.15 547.501 1021.3 548.653 1022.14 550.141C1023.01 551.629 1023.44 553.393 1023.44 555.433C1023.44 557.449 1023.01 559.201 1022.14 560.689C1021.3 562.177 1020.15 563.341 1018.69 564.181C1017.25 564.997 1015.61 565.405 1013.79 565.405ZM1002.34 565.117V538.405H1007.96V549.673L1007.6 555.397L1007.71 561.157V565.117H1002.34ZM1012.82 560.797C1013.75 560.797 1014.58 560.581 1015.3 560.149C1016.05 559.717 1016.63 559.105 1017.07 558.313C1017.52 557.497 1017.75 556.537 1017.75 555.433C1017.75 554.305 1017.52 553.345 1017.07 552.553C1016.63 551.761 1016.05 551.149 1015.3 550.717C1014.58 550.285 1013.75 550.069 1012.82 550.069C1011.88 550.069 1011.04 550.285 1010.3 550.717C1009.55 551.149 1008.97 551.761 1008.53 552.553C1008.1 553.345 1007.89 554.305 1007.89 555.433C1007.89 556.537 1008.1 557.497 1008.53 558.313C1008.97 559.105 1009.55 559.717 1010.3 560.149C1011.04 560.581 1011.88 560.797 1012.82 560.797ZM1027.2 565.117V538.405H1032.81V565.117H1027.2ZM1047.64 565.405C1045.43 565.405 1043.49 564.973 1041.81 564.109C1040.15 563.245 1038.87 562.069 1037.95 560.581C1037.04 559.069 1036.59 557.353 1036.59 555.433C1036.59 553.489 1037.03 551.773 1037.92 550.285C1038.83 548.773 1040.07 547.597 1041.63 546.757C1043.19 545.893 1044.95 545.461 1046.92 545.461C1048.81 545.461 1050.52 545.869 1052.03 546.685C1053.57 547.477 1054.78 548.629 1055.67 550.141C1056.55 551.629 1057 553.417 1057 555.505C1057 555.721 1056.99 555.973 1056.96 556.261C1056.94 556.525 1056.91 556.777 1056.89 557.017H1041.16V553.741H1053.94L1051.78 554.713C1051.78 553.705 1051.57 552.829 1051.17 552.085C1050.76 551.341 1050.19 550.765 1049.47 550.357C1048.75 549.925 1047.91 549.709 1046.95 549.709C1045.99 549.709 1045.14 549.925 1044.4 550.357C1043.68 550.765 1043.11 551.353 1042.71 552.121C1042.3 552.865 1042.09 553.753 1042.09 554.785V555.649C1042.09 556.705 1042.32 557.641 1042.78 558.457C1043.26 559.249 1043.92 559.861 1044.76 560.293C1045.62 560.701 1046.63 560.905 1047.78 560.905C1048.81 560.905 1049.71 560.749 1050.48 560.437C1051.27 560.125 1051.99 559.657 1052.64 559.033L1055.63 562.273C1054.74 563.281 1053.63 564.061 1052.28 564.613C1050.94 565.141 1049.39 565.405 1047.64 565.405ZM1082.81 565.117V561.337L1082.45 560.509V553.741C1082.45 552.541 1082.08 551.605 1081.34 550.933C1080.62 550.261 1079.5 549.925 1077.99 549.925C1076.96 549.925 1075.94 550.093 1074.93 550.429C1073.94 550.741 1073.1 551.173 1072.41 551.725L1070.39 547.801C1071.45 547.057 1072.72 546.481 1074.21 546.073C1075.7 545.665 1077.21 545.461 1078.74 545.461C1081.7 545.461 1083.99 546.157 1085.62 547.549C1087.25 548.941 1088.07 551.113 1088.07 554.065V565.117H1082.81ZM1076.91 565.405C1075.4 565.405 1074.1 565.153 1073.02 564.649C1071.94 564.121 1071.11 563.413 1070.54 562.525C1069.96 561.637 1069.67 560.641 1069.67 559.537C1069.67 558.385 1069.95 557.377 1070.5 556.513C1071.08 555.649 1071.98 554.977 1073.2 554.497C1074.42 553.993 1076.02 553.741 1077.99 553.741H1083.14V557.017H1078.6C1077.28 557.017 1076.37 557.233 1075.86 557.665C1075.38 558.097 1075.14 558.637 1075.14 559.285C1075.14 560.005 1075.42 560.581 1075.97 561.013C1076.55 561.421 1077.33 561.625 1078.31 561.625C1079.25 561.625 1080.09 561.409 1080.83 560.977C1081.58 560.521 1082.12 559.861 1082.45 558.997L1083.32 561.589C1082.91 562.837 1082.16 563.785 1081.08 564.433C1080 565.081 1078.61 565.405 1076.91 565.405ZM1101.07 565.405C1098.79 565.405 1097.01 564.829 1095.74 563.677C1094.47 562.501 1093.83 560.761 1093.83 558.457V541.465H1099.45V558.385C1099.45 559.201 1099.67 559.837 1100.1 560.293C1100.53 560.725 1101.12 560.941 1101.86 560.941C1102.75 560.941 1103.51 560.701 1104.13 560.221L1105.64 564.181C1105.07 564.589 1104.37 564.901 1103.55 565.117C1102.76 565.309 1101.93 565.405 1101.07 565.405ZM1090.85 550.501V546.181H1104.27V550.501H1090.85ZM1126.91 565.405C1124.63 565.405 1122.85 564.829 1121.58 563.677C1120.31 562.501 1119.67 560.761 1119.67 558.457V541.465H1125.29V558.385C1125.29 559.201 1125.51 559.837 1125.94 560.293C1126.37 560.725 1126.96 560.941 1127.7 560.941C1128.59 560.941 1129.35 560.701 1129.97 560.221L1131.48 564.181C1130.91 564.589 1130.21 564.901 1129.39 565.117C1128.6 565.309 1127.77 565.405 1126.91 565.405ZM1116.69 550.501V546.181H1130.11V550.501H1116.69ZM1146.41 545.461C1147.94 545.461 1149.31 545.773 1150.51 546.397C1151.73 546.997 1152.69 547.933 1153.39 549.205C1154.09 550.453 1154.43 552.061 1154.43 554.029V565.117H1148.82V554.893C1148.82 553.333 1148.47 552.181 1147.77 551.437C1147.1 550.693 1146.14 550.321 1144.89 550.321C1144.01 550.321 1143.2 550.513 1142.48 550.897C1141.79 551.257 1141.23 551.821 1140.83 552.589C1140.44 553.357 1140.25 554.341 1140.25 555.541V565.117H1134.63V538.405H1140.25V551.113L1138.99 549.493C1139.69 548.197 1140.68 547.201 1141.98 546.505C1143.27 545.809 1144.75 545.461 1146.41 545.461ZM1159.53 565.117V545.749H1165.14V565.117H1159.53ZM1162.33 543.049C1161.3 543.049 1160.46 542.749 1159.81 542.149C1159.17 541.549 1158.84 540.805 1158.84 539.917C1158.84 539.029 1159.17 538.285 1159.81 537.685C1160.46 537.085 1161.3 536.785 1162.33 536.785C1163.37 536.785 1164.21 537.073 1164.85 537.649C1165.5 538.201 1165.83 538.921 1165.83 539.809C1165.83 540.745 1165.5 541.525 1164.85 542.149C1164.23 542.749 1163.39 543.049 1162.33 543.049ZM1176.87 565.405C1175.21 565.405 1173.62 565.213 1172.08 564.829C1170.57 564.421 1169.37 563.917 1168.48 563.317L1170.35 559.285C1171.24 559.837 1172.29 560.293 1173.49 560.653C1174.71 560.989 1175.91 561.157 1177.09 561.157C1178.38 561.157 1179.29 561.001 1179.82 560.689C1180.37 560.377 1180.65 559.945 1180.65 559.393C1180.65 558.937 1180.43 558.601 1180 558.385C1179.59 558.145 1179.04 557.965 1178.35 557.845C1177.65 557.725 1176.88 557.605 1176.04 557.485C1175.23 557.365 1174.4 557.209 1173.56 557.017C1172.72 556.801 1171.95 556.489 1171.25 556.081C1170.56 555.673 1169.99 555.121 1169.56 554.425C1169.15 553.729 1168.95 552.829 1168.95 551.725C1168.95 550.501 1169.3 549.421 1169.99 548.485C1170.71 547.549 1171.75 546.817 1173.09 546.289C1174.43 545.737 1176.04 545.461 1177.91 545.461C1179.23 545.461 1180.58 545.605 1181.95 545.893C1183.31 546.181 1184.45 546.601 1185.37 547.153L1183.49 551.149C1182.56 550.597 1181.61 550.225 1180.65 550.033C1179.71 549.817 1178.8 549.709 1177.91 549.709C1176.67 549.709 1175.75 549.877 1175.18 550.213C1174.6 550.549 1174.31 550.981 1174.31 551.509C1174.31 551.989 1174.52 552.349 1174.93 552.589C1175.36 552.829 1175.92 553.021 1176.62 553.165C1177.31 553.309 1178.07 553.441 1178.89 553.561C1179.73 553.657 1180.57 553.813 1181.41 554.029C1182.25 554.245 1183 554.557 1183.67 554.965C1184.37 555.349 1184.93 555.889 1185.37 556.585C1185.8 557.257 1186.01 558.145 1186.01 559.249C1186.01 560.449 1185.65 561.517 1184.93 562.453C1184.21 563.365 1183.17 564.085 1181.8 564.613C1180.46 565.141 1178.81 565.405 1176.87 565.405ZM1207.59 565.405C1205.31 565.405 1203.54 564.829 1202.27 563.677C1200.99 562.501 1200.36 560.761 1200.36 558.457V541.465H1205.97V558.385C1205.97 559.201 1206.19 559.837 1206.62 560.293C1207.05 560.725 1207.64 560.941 1208.39 560.941C1209.27 560.941 1210.03 560.701 1210.65 560.221L1212.17 564.181C1211.59 564.589 1210.89 564.901 1210.08 565.117C1209.29 565.309 1208.46 565.405 1207.59 565.405ZM1197.37 550.501V546.181H1210.8V550.501H1197.37ZM1215.32 565.117V545.749H1220.93V565.117H1215.32ZM1218.13 543.049C1217.09 543.049 1216.25 542.749 1215.61 542.149C1214.96 541.549 1214.63 540.805 1214.63 539.917C1214.63 539.029 1214.96 538.285 1215.61 537.685C1216.25 537.085 1217.09 536.785 1218.13 536.785C1219.16 536.785 1220 537.073 1220.65 537.649C1221.29 538.201 1221.62 538.921 1221.62 539.809C1221.62 540.745 1221.29 541.525 1220.65 542.149C1220.02 542.749 1219.18 543.049 1218.13 543.049ZM1250.95 545.461C1252.49 545.461 1253.84 545.773 1255.02 546.397C1256.22 546.997 1257.15 547.933 1257.83 549.205C1258.52 550.453 1258.87 552.061 1258.87 554.029V565.117H1253.25V554.893C1253.25 553.333 1252.93 552.181 1252.28 551.437C1251.63 550.693 1250.72 550.321 1249.55 550.321C1248.73 550.321 1248 550.513 1247.35 550.897C1246.7 551.257 1246.2 551.809 1245.84 552.553C1245.48 553.297 1245.3 554.245 1245.3 555.397V565.117H1239.68V554.893C1239.68 553.333 1239.36 552.181 1238.71 551.437C1238.09 550.693 1237.19 550.321 1236.01 550.321C1235.19 550.321 1234.46 550.513 1233.81 550.897C1233.17 551.257 1232.66 551.809 1232.3 552.553C1231.94 553.297 1231.76 554.245 1231.76 555.397V565.117H1226.15V545.749H1231.51V551.041L1230.5 549.493C1231.17 548.173 1232.12 547.177 1233.35 546.505C1234.59 545.809 1236.01 545.461 1237.59 545.461C1239.37 545.461 1240.92 545.917 1242.24 546.829C1243.58 547.717 1244.47 549.085 1244.9 550.933L1242.92 550.393C1243.57 548.881 1244.6 547.681 1246.02 546.793C1247.46 545.905 1249.1 545.461 1250.95 545.461ZM1273.66 565.405C1271.45 565.405 1269.51 564.973 1267.83 564.109C1266.17 563.245 1264.89 562.069 1263.97 560.581C1263.06 559.069 1262.61 557.353 1262.61 555.433C1262.61 553.489 1263.05 551.773 1263.94 550.285C1264.85 548.773 1266.09 547.597 1267.65 546.757C1269.21 545.893 1270.97 545.461 1272.94 545.461C1274.83 545.461 1276.54 545.869 1278.05 546.685C1279.59 547.477 1280.8 548.629 1281.69 550.141C1282.57 551.629 1283.02 553.417 1283.02 555.505C1283.02 555.721 1283.01 555.973 1282.98 556.261C1282.96 556.525 1282.93 556.777 1282.91 557.017H1267.18V553.741H1279.96L1277.8 554.713C1277.8 553.705 1277.59 552.829 1277.19 552.085C1276.78 551.341 1276.21 550.765 1275.49 550.357C1274.77 549.925 1273.93 549.709 1272.97 549.709C1272.01 549.709 1271.16 549.925 1270.42 550.357C1269.7 550.765 1269.13 551.353 1268.73 552.121C1268.32 552.865 1268.11 553.753 1268.11 554.785V555.649C1268.11 556.705 1268.34 557.641 1268.8 558.457C1269.28 559.249 1269.94 559.861 1270.78 560.293C1271.64 560.701 1272.65 560.905 1273.8 560.905C1274.83 560.905 1275.73 560.749 1276.5 560.437C1277.29 560.125 1278.01 559.657 1278.66 559.033L1281.65 562.273C1280.76 563.281 1279.65 564.061 1278.3 564.613C1276.96 565.141 1275.41 565.405 1273.66 565.405ZM1296.59 550.249V545.857H1313.73V550.249H1296.59ZM1296.59 559.177V554.785H1313.73V559.177H1296.59ZM1323.04 572.101C1321.6 569.917 1320.48 567.397 1319.69 564.541C1318.92 561.661 1318.54 558.565 1318.54 555.253C1318.54 551.941 1318.92 548.845 1319.69 545.965C1320.48 543.061 1321.6 540.541 1323.04 538.405H1328.4C1326.89 541.117 1325.79 543.853 1325.09 546.613C1324.39 549.349 1324.05 552.229 1324.05 555.253C1324.05 558.277 1324.39 561.169 1325.09 563.929C1325.79 566.665 1326.89 569.389 1328.4 572.101H1323.04Z" fill="black"/>
<defs>
<clipPath id="clip0_2207_850">
<rect width="566.929" height="154.117" fill="white" transform="translate(616.536 313)"/>
</clipPath>
</defs>
</svg>
